<svg width="150" height="150" viewBox="0 0 150 150" fill="none" xmlns="http://www.w3.org/2000/svg">
<path d="M75 22.1875V91.0625L16.5625 131.938C11.25 125.625 10.9375 116.062 16.875 105.375L36.375 70.3125L54.75 37.25C60.3125 27.25 67.625 22.1875 75 22.1875Z" fill="#292D32"/>
<path opacity="0.6" d="M133.438 131.938C129.375 136.875 122.313 139.813 112.875 139.813H37.125C27.6875 139.813 20.625 136.875 16.5625 131.938L75 91.0625L133.438 131.938Z" fill="#292D32"/>
<path opacity="0.4" d="M133.438 131.938L75 91.0625V22.1875C82.375 22.1875 89.6875 27.25 95.25 37.25L113.625 70.3125L133.125 105.375C139.062 116.062 138.75 125.625 133.438 131.938Z" fill="#292D32"/>
</svg>
