<svg width="50" height="50" viewBox="0 0 50 50" fill="none" xmlns="http://www.w3.org/2000/svg">
<path d="M25 5.39581V28.3541L5.52085 41.9791C3.75002 39.875 3.64585 36.6875 5.62502 33.125L12.125 21.4375L18.25 10.4166C20.1042 7.08331 22.5417 5.39581 25 5.39581Z" fill="#292D32"/>
<path opacity="0.6" d="M44.4792 41.9792C43.125 43.625 40.7708 44.6042 37.625 44.6042H12.375C9.22915 44.6042 6.87498 43.625 5.52081 41.9792L25 28.3542L44.4792 41.9792Z" fill="#292D32"/>
<path opacity="0.4" d="M44.4792 41.9791L25 28.3541V5.39581C27.4583 5.39581 29.8958 7.08331 31.75 10.4166L37.875 21.4375L44.375 33.125C46.3542 36.6875 46.25 39.875 44.4792 41.9791Z" fill="#292D32"/>
</svg>
